<svg width="32" height="32" viewBox="0 0 32 32" fill="none" xmlns="http://www.w3.org/2000/svg">
<path opacity="0.2" d="M28.9575 26.7162C29.0081 26.8886 29.0114 27.0713 28.967 27.2453C28.9226 27.4193 28.8321 27.5781 28.7051 27.7051C28.5781 27.8321 28.4193 27.9225 28.2453 27.967C28.0713 28.0114 27.8886 28.0081 27.7163 27.9575L24.25 26.9375C23.105 27.5499 21.8411 27.9074 20.545 27.9855C19.2489 28.0637 17.9512 27.8607 16.7408 27.3904C15.5305 26.9201 14.4362 26.1937 13.5329 25.2609C12.6296 24.3281 11.9387 23.211 11.5075 21.9862C11.6713 21.995 11.835 22 12 22C13.4385 22.0001 14.8562 21.6554 16.134 20.9947C17.4119 20.3341 18.5127 19.3767 19.3444 18.2029C20.176 17.0291 20.7141 15.6731 20.9137 14.2485C21.1132 12.8238 20.9684 11.3721 20.4913 10.015C22.0031 10.0971 23.4698 10.5593 24.7556 11.3587C26.0413 12.1582 27.1046 13.2692 27.847 14.5887C28.5894 15.9083 28.9869 17.3938 29.0028 18.9078C29.0186 20.4217 28.6522 21.9152 27.9375 23.25L28.9575 26.7162Z" fill="#39468C"/>
<path d="M29.0088 23.345C29.6997 21.9119 30.0388 20.3345 29.9977 18.744C29.9567 17.1535 29.5367 15.5958 28.7727 14.2002C28.0087 12.8046 26.9228 11.6115 25.605 10.7198C24.2873 9.82824 22.7759 9.26391 21.1963 9.07375C20.6707 7.85171 19.9065 6.74682 18.9486 5.82378C17.9906 4.90074 16.8582 4.17811 15.6175 3.6982C14.3768 3.2183 13.0528 2.99076 11.723 3.02892C10.3933 3.06708 9.08455 3.37017 7.87342 3.92043C6.66228 4.4707 5.57311 5.25708 4.66968 6.23354C3.76625 7.20999 3.06673 8.35689 2.61207 9.60706C2.15742 10.8572 1.95677 12.1856 2.02188 13.5142C2.08699 14.8429 2.41654 16.1453 2.99125 17.345L2.0825 20.4338C1.9809 20.7786 1.9741 21.1444 2.06283 21.4927C2.15157 21.8411 2.33255 22.1591 2.58673 22.4133C2.84092 22.6675 3.15891 22.8484 3.50726 22.9372C3.85561 23.0259 4.22144 23.0191 4.56625 22.9175L7.655 22.0088C8.64679 22.4853 9.71011 22.7956 10.8025 22.9275C11.3332 24.171 12.1106 25.294 13.0876 26.2285C14.0647 27.1631 15.2211 27.8898 16.4869 28.3648C17.7528 28.8397 19.1018 29.053 20.4524 28.9919C21.8031 28.9307 23.1273 28.5962 24.345 28.0088L27.4338 28.9175C27.7784 29.019 28.1441 29.0257 28.4923 28.9371C28.8405 28.8484 29.1584 28.6675 29.4125 28.4135C29.6667 28.1595 29.8477 27.8417 29.9365 27.4936C30.0254 27.1454 30.0188 26.7797 29.9175 26.435L29.0088 23.345ZM7.75 19.9375C7.65444 19.9377 7.55937 19.9512 7.4675 19.9775L4 21L5.02125 17.53C5.09388 17.2793 5.06562 17.0101 4.9425 16.78C4.03789 15.0882 3.77134 13.1277 4.19146 11.2558C4.61157 9.38395 5.69036 7.72537 7.23118 6.58244C8.772 5.4395 10.6722 4.88832 12.5855 5.02938C14.4987 5.17043 16.2976 5.99432 17.6541 7.35087C19.0107 8.70741 19.8346 10.5063 19.9756 12.4195C20.1167 14.3328 19.5655 16.233 18.4226 17.7738C17.2796 19.3146 15.6211 20.3934 13.7492 20.8135C11.8773 21.2337 9.91678 20.9671 8.225 20.0625C8.07952 19.982 7.91626 19.939 7.75 19.9375ZM26.9738 23.5288L28 27L24.53 25.9788C24.2793 25.9061 24.0101 25.9344 23.78 26.0575C21.9385 27.0408 19.7858 27.2659 17.7808 26.685C15.7757 26.104 14.0768 24.7629 13.0463 22.9475C14.4155 22.8046 15.7404 22.3803 16.9379 21.7011C18.1354 21.022 19.1796 20.1028 20.0051 19.001C20.8305 17.8993 21.4194 16.6389 21.7347 15.2988C22.05 13.9587 22.085 12.568 21.8375 11.2138C23.0305 11.495 24.1429 12.0465 25.0889 12.8259C26.0349 13.6052 26.7892 14.5915 27.2935 15.7087C27.7978 16.8258 28.0387 18.0438 27.9976 19.2688C27.9564 20.4938 27.6344 21.693 27.0563 22.7738C26.9318 23.0053 26.9035 23.2765 26.9775 23.5288H26.9738Z" fill="#39468C"/>
</svg>
