<svg width="32" height="32" viewBox="0 0 32 32" fill="none" xmlns="http://www.w3.org/2000/svg">
<g clip-path="url(#clip0_13_152)">
<path opacity="0.2" d="M30.7075 16.125L27.125 19.7075C26.9375 19.8945 26.6835 19.9995 26.4188 19.9995C26.154 19.9995 25.9 19.8945 25.7125 19.7075L21.0125 15L17.5125 18.5L13.5125 14.5L17.0125 11L10 3.9725C12.0341 3.05356 14.3001 2.77662 16.4957 3.17862C18.6913 3.58062 20.7122 4.64245 22.2887 6.2225L30.7075 14.7088C30.8007 14.8016 30.8746 14.912 30.925 15.0335C30.9755 15.155 31.0014 15.2853 31.0014 15.4169C31.0014 15.5484 30.9755 15.6787 30.925 15.8002C30.8746 15.9217 30.8007 16.0321 30.7075 16.125Z" fill="#39468C"/>
<path d="M31.4175 14L22.985 5.51C20.7329 3.26241 17.6811 2.00011 14.4994 2.00011C11.3176 2.00011 8.26584 3.26241 6.01375 5.51L6.0025 5.52125L4.28125 7.3C4.10295 7.49162 4.00688 7.7455 4.01367 8.00716C4.02046 8.26881 4.12957 8.51738 4.31757 8.69949C4.50557 8.8816 4.75748 8.98274 5.01922 8.9812C5.28095 8.97966 5.53166 8.87556 5.7175 8.69125L7.43375 6.91875C8.12424 6.2284 8.9122 5.64301 9.7725 5.18125L15.585 11L3.585 23C3.39924 23.1857 3.25188 23.4062 3.15134 23.6489C3.0508 23.8916 2.99905 24.1517 2.99905 24.4144C2.99905 24.6771 3.0508 24.9372 3.15134 25.1798C3.25188 25.4225 3.39924 25.643 3.585 25.8288L6.17125 28.415C6.35697 28.6008 6.57747 28.7481 6.82015 28.8487C7.06284 28.9492 7.32295 29.0009 7.58563 29.0009C7.84831 29.0009 8.10842 28.9492 8.3511 28.8487C8.59378 28.7481 8.81428 28.6008 9 28.415L21 16.415L22.7925 18.2075L25 20.4125C25.1857 20.5983 25.4062 20.7456 25.6489 20.8462C25.8916 20.9467 26.1517 20.9984 26.4144 20.9984C26.6771 20.9984 26.9372 20.9467 27.1798 20.8462C27.4225 20.7456 27.643 20.5983 27.8288 20.4125L31.415 16.8263C31.7897 16.4516 32.0005 15.9435 32.001 15.4136C32.0014 14.8837 31.7916 14.3753 31.4175 14ZM7.585 27L5 24.4137L13.5 15.9137L16.085 18.5L7.585 27ZM20.2925 14.29L17.5 17.0837L14.9138 14.5L17.7075 11.7063C17.8005 11.6134 17.8742 11.5031 17.9246 11.3817C17.9749 11.2603 18.0008 11.1302 18.0008 10.9987C18.0008 10.8673 17.9749 10.7372 17.9246 10.6158C17.8742 10.4944 17.8005 10.3841 17.7075 10.2913L11.79 4.375C13.4997 3.8935 15.3067 3.87604 17.0254 4.32443C18.744 4.77282 20.3122 5.67088 21.5688 6.92625L27.0963 12.49L23.5 16.0825L21.7075 14.29C21.6146 14.197 21.5043 14.1233 21.3829 14.0729C21.2615 14.0226 21.1314 13.9967 21 13.9967C20.8686 13.9967 20.7385 14.0226 20.6171 14.0729C20.4957 14.1233 20.3854 14.197 20.2925 14.29ZM26.4175 18.9975L24.9175 17.4975L28.5 13.9062L30 15.4062L26.4175 18.9975Z" fill="#39468C"/>
</g>
<defs>
<clipPath id="clip0_13_152">
<rect width="32" height="32" fill="white"/>
</clipPath>
</defs>
</svg>
