<svg width="32" height="32" viewBox="0 0 32 32" fill="none" xmlns="http://www.w3.org/2000/svg">
<path opacity="0.2" d="M23 12V25.2887L21.665 23.25C21.3675 22.7376 20.8976 22.3476 20.3392 22.1494C19.7809 21.9513 19.1702 21.9579 18.6163 22.168C18.0623 22.3782 17.601 22.7783 17.3146 23.297C17.0282 23.8157 16.9353 24.4192 17.0525 25H7V12C7 11.7348 7.10536 11.4804 7.29289 11.2929C7.48043 11.1054 7.73478 11 8 11H22C22.2652 11 22.5196 11.1054 22.7071 11.2929C22.8946 11.4804 23 11.7348 23 12Z" fill="#39468C"/>
<path d="M16 4.41375V16C16 16.2652 15.8946 16.5196 15.7071 16.7071C15.5196 16.8946 15.2652 17 15 17C14.7348 17 14.4804 16.8946 14.2929 16.7071C14.1054 16.5196 14 16.2652 14 16V4.41375L11.7075 6.7075C11.6146 6.80041 11.5043 6.87411 11.3829 6.92439C11.2615 6.97468 11.1314 7.00056 11 7.00056C10.7346 7.00056 10.4801 6.89514 10.2925 6.7075C10.1996 6.61459 10.1259 6.50429 10.0756 6.3829C10.0253 6.2615 9.99944 6.1314 9.99944 6C9.99944 5.73464 10.1049 5.48014 10.2925 5.2925L14.2925 1.2925C14.3854 1.19952 14.4957 1.12577 14.6171 1.07544C14.7385 1.02512 14.8686 0.999214 15 0.999214C15.1314 0.999214 15.2615 1.02512 15.3829 1.07544C15.5043 1.12577 15.6146 1.19952 15.7075 1.2925L19.7075 5.2925C19.8951 5.48014 20.0006 5.73464 20.0006 6C20.0006 6.26537 19.8951 6.51986 19.7075 6.7075C19.5199 6.89514 19.2654 7.00056 19 7.00056C18.7346 7.00056 18.4801 6.89514 18.2925 6.7075L16 4.41375ZM24 15.4525V12C24 11.4696 23.7893 10.9609 23.4142 10.5858C23.0391 10.2107 22.5304 10 22 10H20C19.7348 10 19.4804 10.1054 19.2929 10.2929C19.1054 10.4804 19 10.7348 19 11C19 11.2652 19.1054 11.5196 19.2929 11.7071C19.4804 11.8946 19.7348 12 20 12H22V22.05C21.4036 21.4408 20.6055 21.0702 19.7552 21.0078C18.905 20.9453 18.0612 21.1953 17.3823 21.7109C16.7033 22.2264 16.2359 22.972 16.0677 23.8078C15.8995 24.6435 16.0421 25.5119 16.4688 26.25L16.4988 26.2975L19.2812 30.5475C19.4265 30.7695 19.6539 30.9246 19.9135 30.9789C20.1731 31.0332 20.4437 30.9821 20.6656 30.8369C20.8876 30.6917 21.0428 30.4642 21.097 30.2046C21.1513 29.945 21.1002 29.6745 20.955 29.4525L18.1887 25.2288C17.9927 24.8825 17.9421 24.4725 18.0483 24.089C18.1545 23.7055 18.4087 23.3798 18.755 23.1838C19.1013 22.9877 19.5113 22.9372 19.8948 23.0433C20.2783 23.1495 20.6039 23.4037 20.8 23.75C20.8087 23.7663 20.8188 23.7825 20.8288 23.7975L22.1637 25.8363C22.2818 26.0162 22.4547 26.1533 22.6568 26.2272C22.8589 26.301 23.0795 26.3077 23.2857 26.2462C23.492 26.1847 23.6729 26.0583 23.8015 25.8858C23.9302 25.7134 23.9998 25.504 24 25.2887V18C24.9426 18.8725 25.6954 19.9298 26.2115 21.1059C26.7276 22.282 26.996 23.5519 27 24.8363V30C27 30.2652 27.1054 30.5196 27.2929 30.7071C27.4804 30.8946 27.7348 31 28 31C28.2652 31 28.5196 30.8946 28.7071 30.7071C28.8946 30.5196 29 30.2652 29 30V24.8312C28.9943 22.9788 28.5358 21.1558 27.6643 19.5212C26.7928 17.8865 25.5349 16.4897 24 15.4525ZM10 10H8C7.46957 10 6.96086 10.2107 6.58579 10.5858C6.21071 10.9609 6 11.4696 6 12V25C6 25.2652 6.10536 25.5196 6.29289 25.7071C6.48043 25.8946 6.73478 26 7 26C7.26522 26 7.51957 25.8946 7.70711 25.7071C7.89464 25.5196 8 25.2652 8 25V12H10C10.2652 12 10.5196 11.8946 10.7071 11.7071C10.8946 11.5196 11 11.2652 11 11C11 10.7348 10.8946 10.4804 10.7071 10.2929C10.5196 10.1054 10.2652 10 10 10Z" fill="#39468C"/>
</svg>
