<svg width="28" height="28" viewBox="0 0 28 28" fill="none" xmlns="http://www.w3.org/2000/svg">
<path opacity="0.2" d="M24.5 14C24.5016 15.4725 24.1926 16.9289 23.5933 18.2739C22.994 19.619 22.1178 20.8226 21.0219 21.8061C20.363 20.5101 19.3582 19.4218 18.1188 18.6618C16.8795 17.9017 15.4539 17.4996 14 17.5C14.8653 17.5 15.7112 17.2434 16.4306 16.7627C17.1501 16.282 17.7108 15.5987 18.042 14.7992C18.3731 13.9998 18.4597 13.1202 18.2909 12.2715C18.1221 11.4228 17.7054 10.6433 17.0936 10.0314C16.4817 9.41956 15.7022 9.00288 14.8535 8.83407C14.0049 8.66526 13.1252 8.7519 12.3258 9.08303C11.5263 9.41417 10.8431 9.97492 10.3623 10.6944C9.88159 11.4139 9.625 12.2597 9.625 13.125C9.625 14.2853 10.0859 15.3981 10.9064 16.2186C11.7269 17.0391 12.8397 17.5 14 17.5C12.5461 17.4996 11.1206 17.9017 9.88118 18.6618C8.6418 19.4218 7.63701 20.5101 6.97813 21.8061C5.67684 20.6356 4.68879 19.1584 4.10382 17.5088C3.51884 15.8592 3.35551 14.0896 3.62866 12.3608C3.90182 10.632 4.6028 8.99888 5.66787 7.61C6.73293 6.22112 8.12829 5.1205 9.72705 4.40824C11.3258 3.69599 13.0773 3.39468 14.8221 3.53172C16.567 3.66876 18.2499 4.23981 19.7179 5.19292C21.1859 6.14604 22.3923 7.451 23.2275 8.98913C24.0627 10.5273 24.5001 12.2498 24.5 14Z" fill="#39468C"/>
<path d="M14 2.625C11.7502 2.625 9.551 3.29213 7.68039 4.54203C5.80978 5.79193 4.35182 7.56847 3.49088 9.64698C2.62993 11.7255 2.40467 14.0126 2.84357 16.2192C3.28248 18.4257 4.36584 20.4525 5.95667 22.0433C7.54749 23.6342 9.57432 24.7175 11.7809 25.1564C13.9874 25.5953 16.2745 25.3701 18.353 24.5091C20.4315 23.6482 22.2081 22.1902 23.458 20.3196C24.7079 18.449 25.375 16.2498 25.375 14C25.3718 10.9841 24.1724 8.09271 22.0398 5.96018C19.9073 3.82764 17.0159 2.62818 14 2.625ZM8.10251 21.6016C8.7355 20.6116 9.60751 19.7969 10.6382 19.2326C11.6688 18.6682 12.825 18.3724 14 18.3724C15.175 18.3724 16.3312 18.6682 17.3618 19.2326C18.3925 19.7969 19.2645 20.6116 19.8975 21.6016C18.2113 22.913 16.1361 23.6249 14 23.6249C11.8639 23.6249 9.7887 22.913 8.10251 21.6016ZM10.5 13.125C10.5 12.4328 10.7053 11.7561 11.0899 11.1805C11.4744 10.6049 12.0211 10.1563 12.6606 9.89142C13.3002 9.62651 14.0039 9.5572 14.6828 9.69225C15.3618 9.8273 15.9854 10.1606 16.4749 10.6501C16.9644 11.1396 17.2977 11.7633 17.4328 12.4422C17.5678 13.1211 17.4985 13.8249 17.2336 14.4644C16.9687 15.1039 16.5201 15.6506 15.9445 16.0351C15.3689 16.4197 14.6922 16.625 14 16.625C13.0717 16.625 12.1815 16.2563 11.5251 15.5999C10.8688 14.9435 10.5 14.0533 10.5 13.125ZM21.1925 20.3886C20.2166 18.9745 18.8444 17.8804 17.2484 17.2441C18.1057 16.5688 18.7313 15.6432 19.0382 14.596C19.345 13.5487 19.3179 12.4319 18.9606 11.4008C18.6033 10.3696 17.9336 9.47547 17.0445 8.84263C16.1554 8.20979 15.0913 7.86973 14 7.86973C12.9087 7.86973 11.8446 8.20979 10.9555 8.84263C10.0665 9.47547 9.39671 10.3696 9.0394 11.4008C8.68209 12.4319 8.65497 13.5487 8.96183 14.596C9.26869 15.6432 9.89427 16.5688 10.7516 17.2441C9.15559 17.8804 7.78338 18.9745 6.80751 20.3886C5.57438 19.0019 4.7684 17.2883 4.48662 15.4541C4.20484 13.62 4.45927 11.7435 5.21929 10.0506C5.9793 8.35768 7.21249 6.92057 8.77035 5.91231C10.3282 4.90404 12.1443 4.36761 14 4.36761C15.8557 4.36761 17.6718 4.90404 19.2297 5.91231C20.7875 6.92057 22.0207 8.35768 22.7807 10.0506C23.5407 11.7435 23.7952 13.62 23.5134 15.4541C23.2316 17.2883 22.4256 19.0019 21.1925 20.3886Z" fill="#39468C"/>
</svg>
