<svg width="28" height="28" viewBox="0 0 28 28" fill="none" xmlns="http://www.w3.org/2000/svg">
<path opacity="0.2" d="M21 12.25C21 13.9806 20.4868 15.6723 19.5254 17.1112C18.5639 18.5502 17.1973 19.6717 15.5985 20.3339C13.9996 20.9962 12.2403 21.1695 10.543 20.8319C8.84563 20.4943 7.28653 19.6609 6.06282 18.4372C4.83911 17.2135 4.00575 15.6544 3.66813 13.957C3.33051 12.2597 3.50379 10.5004 4.16606 8.90152C4.82832 7.30267 5.94983 5.9361 7.38876 4.97464C8.82769 4.01318 10.5194 3.5 12.25 3.5C13.3991 3.5 14.5369 3.72633 15.5985 4.16605C16.6601 4.60578 17.6247 5.2503 18.4372 6.06282C19.2497 6.87533 19.8942 7.83992 20.334 8.90152C20.7737 9.96312 21 11.1009 21 12.25Z" fill="#39468C"/>
<path d="M25.1191 23.8809L19.6437 18.4056C21.2338 16.4986 22.0275 14.0519 21.8595 11.5746C21.6916 9.09735 20.5751 6.78017 18.7422 5.10515C16.9093 3.43014 14.5012 2.52625 12.0189 2.58153C9.53651 2.6368 7.17104 3.647 5.41454 5.40195C3.65804 7.15689 2.64575 9.52148 2.58828 12.0038C2.53081 14.4861 3.43257 16.895 5.10597 18.7294C6.77936 20.5637 9.09555 21.6823 11.5727 21.8524C14.0498 22.0225 16.4972 21.231 18.4056 19.6426L23.8809 25.1191C23.9622 25.2003 24.0587 25.2648 24.165 25.3088C24.2712 25.3528 24.385 25.3755 24.5 25.3755C24.615 25.3755 24.7288 25.3528 24.835 25.3088C24.9413 25.2648 25.0378 25.2003 25.1191 25.1191C25.2004 25.0378 25.2648 24.9412 25.3088 24.835C25.3528 24.7288 25.3755 24.615 25.3755 24.5C25.3755 24.385 25.3528 24.2712 25.3088 24.165C25.2648 24.0587 25.2004 23.9622 25.1191 23.8809ZM4.375 12.25C4.375 10.6925 4.83686 9.16991 5.70217 7.87487C6.56749 6.57983 7.7974 5.57048 9.23637 4.97444C10.6753 4.3784 12.2587 4.22244 13.7863 4.5263C15.3139 4.83016 16.7171 5.58018 17.8185 6.68152C18.9198 7.78286 19.6698 9.18605 19.9737 10.7137C20.2775 12.2413 20.1216 13.8247 19.5256 15.2636C18.9295 16.7026 17.9202 17.9325 16.6251 18.7978C15.3301 19.6631 13.8075 20.125 12.25 20.125C10.1621 20.1227 8.16044 19.2922 6.68409 17.8159C5.20774 16.3395 4.37731 14.3379 4.375 12.25Z" fill="#39468C"/>
</svg>
